<svg width="36" height="36" viewBox="0 0 36 36" fill="none" xmlns="http://www.w3.org/2000/svg">
<path id="Vector" d="M17.9844 0.97925C8.32422 0.975343 0.5 8.79566 0.5 18.448C0.5 26.0808 5.39453 32.5691 12.2109 34.9519C13.1289 35.1824 12.9883 34.53 12.9883 34.0847V31.0574C7.6875 31.6785 7.47266 28.1707 7.11719 27.5847C6.39844 26.3582 4.69922 26.0457 5.20703 25.4597C6.41406 24.8386 7.64453 25.616 9.07031 27.7214C10.1016 29.2488 12.1133 28.991 13.1328 28.7371C13.3555 27.8191 13.832 26.9988 14.4883 26.3621C8.99609 25.3777 6.70703 22.0261 6.70703 18.0417C6.70703 16.1082 7.34375 14.3308 8.59375 12.8972C7.79688 10.5339 8.66797 8.5105 8.78516 8.20972C11.0547 8.00659 13.4141 9.83472 13.5977 9.97925C14.8867 9.63159 16.3594 9.448 18.0078 9.448C19.6641 9.448 21.1406 9.63941 22.4414 9.99097C22.8828 9.65503 25.0703 8.08472 27.1797 8.27612C27.293 8.57691 28.1445 10.5535 27.3945 12.8855C28.6602 14.323 29.3047 16.116 29.3047 18.0535C29.3047 22.0457 27 25.4011 21.4922 26.3699C21.9639 26.8338 22.3385 27.3871 22.5941 27.9974C22.8496 28.6078 22.981 29.2629 22.9805 29.9246V34.3191C23.0117 34.6707 22.9805 35.0183 23.5664 35.0183C30.4844 32.6863 35.4648 26.1511 35.4648 18.4519C35.4648 8.79566 27.6367 0.97925 17.9844 0.97925Z" fill="#171F3F"/>
</svg>
